HIERARCHY
ROOT Hips
{
	OFFSET 0.000000 71.427986 0.000000
	CHANNELS 6 Xposition Yposition Zposition Xrotation Yrotation Zrotation
	JOINT Pelvis
	{
		OFFSET 0.000000 0.000000 0.000000
		CHANNELS 3 Xrotation Yrotation Zrotation
		JOINT LeftUpLeg
		{
			OFFSET 6.797100 -2.508499 -1.318700
			CHANNELS 3 Xrotation Yrotation Zrotation
			JOINT LeftLeg
			{
				OFFSET 0.069008 -29.241863 0.690200
				CHANNELS 3 Xrotation Yrotation Zrotation
				JOINT LeftFoot
				{
					OFFSET -0.069008 -29.568123 -0.266800
					CHANNELS 3 Xrotation Yrotation Zrotation
					JOINT LeftToeBase
					{
						OFFSET 3.145500 -8.631000 16.059900
						CHANNELS 3 Xrotation Yrotation Zrotation
						End Site
						{
							OFFSET 0.000000 18.501587 0.000000
						}
					}
				}
			}
			JOINT Left_ShortSleeve
			{
				OFFSET 0.265923 -10.480953 1.153800
				CHANNELS 3 Xrotation Yrotation Zrotation
				End Site
				{
					OFFSET 1.725763 19.823879 0.000000
				}
			}
		}
		JOINT RightUpLeg
		{
			OFFSET -6.797100 -2.508499 -1.318700
			CHANNELS 3 Xrotation Yrotation Zrotation
			JOINT RightLeg
			{
				OFFSET -0.082453 -29.241932 0.688000
				CHANNELS 3 Xrotation Yrotation Zrotation
				JOINT RightFoot
				{
					OFFSET 0.082453 -29.568058 -0.264600
					CHANNELS 3 Xrotation Yrotation Zrotation
					JOINT RightToeBase
					{
						OFFSET -3.115300 -8.682800 16.113400
						CHANNELS 3 Xrotation Yrotation Zrotation
						End Site
						{
							OFFSET 0.000000 18.567114 0.000000
						}
					}
				}
			}
			JOINT Right_ShortSleeve
			{
				OFFSET -0.265923 -10.480953 1.153800
				CHANNELS 3 Xrotation Yrotation Zrotation
				End Site
				{
					OFFSET -1.725766 19.823910 0.000000
				}
			}
		}
	}
	JOINT Spine
	{
		OFFSET 0.000000 13.368103 0.470500
		CHANNELS 3 Xrotation Yrotation Zrotation
		JOINT Spine1
		{
			OFFSET 0.147000 13.837402 0.538800
			CHANNELS 3 Xrotation Yrotation Zrotation
			JOINT Spine2
			{
				OFFSET 0.168000 16.242897 -1.435500
				CHANNELS 3 Xrotation Yrotation Zrotation
				JOINT Neck
				{
					OFFSET 0.217200 18.631500 -1.679100
					CHANNELS 3 Xrotation Yrotation Zrotation
					JOINT Head
					{
						OFFSET 0.000000 6.599396 1.385900
						CHANNELS 3 Xrotation Yrotation Zrotation
						JOINT Hat
						{
							OFFSET -0.532200 27.220596 -10.096100
							CHANNELS 3 Xrotation Yrotation Zrotation
							End Site
							{
								OFFSET 0.000000 22.029861 0.000000
							}
						}
						JOINT HairD
						{
							OFFSET -10.777400 17.437393 -1.325900
							CHANNELS 3 Xrotation Yrotation Zrotation
							JOINT HairD1
							{
								OFFSET -3.290299 -11.051193 1.062200
								CHANNELS 3 Xrotation Yrotation Zrotation
								End Site
								{
									OFFSET 0.000000 11.579437 0.000000
								}
							}
						}
						JOINT HairB
						{
							OFFSET -10.777400 17.437393 1.467900
							CHANNELS 3 Xrotation Yrotation Zrotation
							JOINT HairB1
							{
								OFFSET -1.561200 -12.956299 3.590200
								CHANNELS 3 Xrotation Yrotation Zrotation
								End Site
								{
									OFFSET 0.000000 13.534866 0.000000
								}
							}
						}
						JOINT HairA
						{
							OFFSET 9.713100 17.437393 1.467900
							CHANNELS 3 Xrotation Yrotation Zrotation
							JOINT HairA1
							{
								OFFSET 1.561200 -12.956299 3.590200
								CHANNELS 3 Xrotation Yrotation Zrotation
								End Site
								{
									OFFSET 0.000000 13.534866 0.000000
								}
							}
						}
						JOINT HairC
						{
							OFFSET 9.713100 17.437393 -1.325900
							CHANNELS 3 Xrotation Yrotation Zrotation
							JOINT HairC1
							{
								OFFSET 3.290300 -11.051193 1.062200
								CHANNELS 3 Xrotation Yrotation Zrotation
								End Site
								{
									OFFSET 0.000000 11.579437 0.000000
								}
							}
						}
					}
				}
				JOINT LeftShoulder
				{
					OFFSET 5.101800 15.108002 -2.763700
					CHANNELS 3 Xrotation Yrotation Zrotation
					JOINT LeftArm
					{
						OFFSET 9.825497 2.506317 -1.597400
						CHANNELS 3 Xrotation Yrotation Zrotation
						JOINT LeftForeArm
						{
							OFFSET 21.966244 0.000000 0.000000
							CHANNELS 3 Xrotation Yrotation Zrotation
							JOINT LeftHand
							{
								OFFSET 33.879036 0.000000 0.000000
								CHANNELS 3 Xrotation Yrotation Zrotation
								JOINT LeftHandThumb1
								{
									OFFSET 6.715286 -2.359680 3.363841
									CHANNELS 3 Xrotation Yrotation Zrotation
									JOINT LeftHandThumb2
									{
										OFFSET 2.507072 -1.447464 1.447461
										CHANNELS 3 Xrotation Yrotation Zrotation
										JOINT LeftHandThumb3
										{
											OFFSET 2.898338 -1.673355 1.673357
											CHANNELS 3 Xrotation Yrotation Zrotation
											End Site
											{
												OFFSET -0.295959 3.727692 -0.131651
											}
										}
									}
								}
								JOINT LeftHandIndex1
								{
									OFFSET 14.190811 -0.254547 3.840278
									CHANNELS 3 Xrotation Yrotation Zrotation
									JOINT LeftHandIndex2
									{
										OFFSET 3.551727 0.000000 -0.000000
										CHANNELS 3 Xrotation Yrotation Zrotation
										JOINT LeftHandIndex3
										{
											OFFSET 2.894196 0.000000 0.000000
											CHANNELS 3 Xrotation Yrotation Zrotation
											End Site
											{
												OFFSET -1.000603 2.690872 0.366626
											}
										}
									}
								}
								JOINT LeftHandMiddle1
								{
									OFFSET 13.776489 0.000000 0.000000
									CHANNELS 3 Xrotation Yrotation Zrotation
									JOINT LeftHandMiddle2
									{
										OFFSET 3.438232 0.000000 0.000000
										CHANNELS 3 Xrotation Yrotation Zrotation
										JOINT LeftHandMiddle3
										{
											OFFSET 3.691551 0.000000 0.000000
											CHANNELS 3 Xrotation Yrotation Zrotation
											End Site
											{
												OFFSET -1.082298 3.499527 0.457670
											}
										}
									}
								}
								JOINT LeftHandRing1
								{
									OFFSET 13.966164 -0.268127 -3.067488
									CHANNELS 3 Xrotation Yrotation Zrotation
									JOINT LeftHandRing2
									{
										OFFSET 3.162567 0.000000 0.000000
										CHANNELS 3 Xrotation Yrotation Zrotation
										JOINT LeftHandRing3
										{
											OFFSET 3.324348 0.000000 0.000000
											CHANNELS 3 Xrotation Yrotation Zrotation
											End Site
											{
												OFFSET -0.861900 3.184998 0.405154
											}
										}
									}
								}
								JOINT LeftHandPinky1
								{
									OFFSET 13.131393 -0.168503 -5.746925
									CHANNELS 3 Xrotation Yrotation Zrotation
									JOINT LeftHandPinky2
									{
										OFFSET 2.849182 0.000000 0.000000
										CHANNELS 3 Xrotation Yrotation Zrotation
										JOINT LeftHandPinky3
										{
											OFFSET 2.805038 0.000000 0.000000
											CHANNELS 3 Xrotation Yrotation Zrotation
											End Site
											{
												OFFSET -0.882500 2.642609 0.325652
											}
										}
									}
								}
							}
							JOINT Left_Sleeve
							{
								OFFSET 6.592125 -0.646545 0.805568
								CHANNELS 3 Xrotation Yrotation Zrotation
								End Site
								{
									OFFSET -0.000179 20.275787 -0.000000
								}
							}
						}
					}
				}
				JOINT RightShoulder
				{
					OFFSET -5.731700 15.108002 -2.763700
					CHANNELS 3 Xrotation Yrotation Zrotation
					JOINT RightArm
					{
						OFFSET -9.825497 2.506317 -1.597400
						CHANNELS 3 Xrotation Yrotation Zrotation
						JOINT RightForeArm
						{
							OFFSET -21.966242 0.000000 0.000000
							CHANNELS 3 Xrotation Yrotation Zrotation
							JOINT RightHand
							{
								OFFSET -33.879032 0.000000 0.000000
								CHANNELS 3 Xrotation Yrotation Zrotation
								JOINT RightHandThumb1
								{
									OFFSET -6.715286 -2.359680 3.363841
									CHANNELS 3 Xrotation Yrotation Zrotation
									JOINT RightHandThumb2
									{
										OFFSET -2.507072 -1.447464 1.447461
										CHANNELS 3 Xrotation Yrotation Zrotation
										JOINT RightHandThumb3
										{
											OFFSET -2.898338 -1.673355 1.673357
											CHANNELS 3 Xrotation Yrotation Zrotation
											End Site
											{
												OFFSET 0.295959 3.727692 -0.131651
											}
										}
									}
								}
								JOINT RightHandIndex1
								{
									OFFSET -14.190811 -0.254547 3.840278
									CHANNELS 3 Xrotation Yrotation Zrotation
									JOINT RightHandIndex2
									{
										OFFSET -3.551727 0.000000 -0.000000
										CHANNELS 3 Xrotation Yrotation Zrotation
										JOINT RightHandIndex3
										{
											OFFSET -2.894196 0.000000 0.000000
											CHANNELS 3 Xrotation Yrotation Zrotation
											End Site
											{
												OFFSET 1.000603 2.690872 0.366626
											}
										}
									}
								}
								JOINT RightHandMiddle1
								{
									OFFSET -13.776489 0.000000 0.000000
									CHANNELS 3 Xrotation Yrotation Zrotation
									JOINT RightHandMiddle2
									{
										OFFSET -3.438232 0.000000 0.000000
										CHANNELS 3 Xrotation Yrotation Zrotation
										JOINT RightHandMiddle3
										{
											OFFSET -3.691551 0.000000 0.000000
											CHANNELS 3 Xrotation Yrotation Zrotation
											End Site
											{
												OFFSET 1.082298 3.499527 0.457670
											}
										}
									}
								}
								JOINT RightHandRing1
								{
									OFFSET -13.966164 -0.268127 -3.067488
									CHANNELS 3 Xrotation Yrotation Zrotation
									JOINT RightHandRing2
									{
										OFFSET -3.162567 0.000000 0.000000
										CHANNELS 3 Xrotation Yrotation Zrotation
										JOINT RightHandRing3
										{
											OFFSET -3.324348 0.000000 0.000000
											CHANNELS 3 Xrotation Yrotation Zrotation
											End Site
											{
												OFFSET 0.861900 3.184998 0.405154
											}
										}
									}
								}
								JOINT RightHandPinky1
								{
									OFFSET -13.131393 -0.168503 -5.746925
									CHANNELS 3 Xrotation Yrotation Zrotation
									JOINT RightHandPinky2
									{
										OFFSET -2.849182 0.000000 0.000000
										CHANNELS 3 Xrotation Yrotation Zrotation
										JOINT RightHandPinky3
										{
											OFFSET -2.805038 0.000000 0.000000
											CHANNELS 3 Xrotation Yrotation Zrotation
											End Site
											{
												OFFSET 0.882500 2.642609 0.325652
											}
										}
									}
								}
							}
							JOINT Right_Sleeve
							{
								OFFSET -6.592125 -0.646545 0.805568
								CHANNELS 3 Xrotation Yrotation Zrotation
								End Site
								{
									OFFSET 0.000179 20.275787 -0.000000
								}
							}
						}
					}
				}
				JOINT Bind_Right_JacketString
				{
					OFFSET -3.534800 11.969597 7.200700
					CHANNELS 3 Xrotation Yrotation Zrotation
					JOINT Bind_Right_JacketString1
					{
						OFFSET -0.319900 -6.102600 2.794100
						CHANNELS 3 Xrotation Yrotation Zrotation
						End Site
						{
							OFFSET 0.000000 6.719452 0.000000
						}
					}
				}
				JOINT Bind_Left_JacketString
				{
					OFFSET 2.904800 11.969597 7.200700
					CHANNELS 3 Xrotation Yrotation Zrotation
					JOINT Bind_Left_JacketString1
					{
						OFFSET 0.364800 -5.904503 3.186800
						CHANNELS 3 Xrotation Yrotation Zrotation
						End Site
						{
							OFFSET 0.000000 6.719513 0.000000
						}
					}
				}
				JOINT HairE
				{
					OFFSET 5.915200 17.612701 -11.592200
					CHANNELS 3 Xrotation Yrotation Zrotation
					JOINT HairE1
					{
						OFFSET 0.289200 -7.171898 -1.284500
						CHANNELS 3 Xrotation Yrotation Zrotation
						End Site
						{
							OFFSET 0.000000 7.291756 0.000000
						}
					}
				}
				JOINT HairF
				{
					OFFSET -0.864800 17.612701 -11.592200
					CHANNELS 3 Xrotation Yrotation Zrotation
					JOINT HairF1
					{
						OFFSET 0.000000 -14.087097 -2.127501
						CHANNELS 3 Xrotation Yrotation Zrotation
						End Site
						{
							OFFSET 0.000000 14.246841 0.000000
						}
					}
				}
				JOINT HairG
				{
					OFFSET -8.087700 17.612701 -11.592200
					CHANNELS 3 Xrotation Yrotation Zrotation
					JOINT HairG1
					{
						OFFSET -0.293600 -6.081398 -0.910100
						CHANNELS 3 Xrotation Yrotation Zrotation
						End Site
						{
							OFFSET 0.000000 6.156120 0.000000
						}
					}
				}
			}
		}
	}
	JOINT Pouch
	{
		OFFSET 0.000000 4.394501 10.847300
		CHANNELS 3 Xrotation Yrotation Zrotation
		End Site
		{
			OFFSET 0.000000 21.880577 0.000000
		}
	}
	JOINT Bag
	{
		OFFSET -13.229000 4.813004 -0.593300
		CHANNELS 3 Xrotation Yrotation Zrotation
		End Site
		{
			OFFSET 0.000000 21.880577 0.000000
		}
	}
	JOINT OccupyGuyFacialAnim_Joint
	{
		OFFSET 1.000000 -70.206398 -1.655000
		CHANNELS 3 Xrotation Yrotation Zrotation
		End Site
		{
			OFFSET 0.000000 21.880577 0.000000
		}
	}
}
MOTION
Frames: 4
Frame Time: 0.016667
-0.040953 67.626678 0.017395 5.048658 -15.584009 0.097380 0.000000 -0.000001 0.000000 -32.149496 3.468472 8.976349 31.582938 4.743428 1.578299 -3.826560 0.568805 -6.010100 0.000000 -0.000000 0.000000 0.000000 -0.000000 -0.000001 -15.058885 -10.960038 -11.515946 32.881623 -6.406989 1.588944 -20.354090 -2.425501 10.593302 -0.000000 0.000000 -0.000000 -0.000000 0.000001 -0.000001 23.085855 4.340759 -0.221076 3.699119 1.240175 -0.846330 3.692586 1.312477 -0.857370 -12.698245 1.123397 2.281903 -14.088308 7.829663 -3.298853 0.000000 -0.000000 -0.000000 0.000000 -0.000000 -0.000000 0.000000 -0.000000 -0.000000 0.000000 -0.000000 -0.000000 0.000000 0.000000 -0.000000 0.000000 -0.000000 -0.000000 0.000000 0.000000 -0.000000 0.000000 -0.000000 -0.000000 0.000000 -0.000000 -0.000000 7.811587 -20.950962 9.744734 -33.643029 -3.124196 -85.445639 0.000017 -42.998312 -4.823174 -17.287094 -10.866545 -12.599015 -7.471920 1.860682 -7.166908 30.987011 27.310525 -4.510892 -0.000003 -0.000000 -0.000001 -4.713124 11.342549 -75.220928 -0.816405 3.073987 -46.874625 -0.000001 -0.000000 -0.000000 1.616676 16.582659 -84.688820 0.018008 0.022038 -72.884839 0.000002 -0.000001 0.000001 -6.443163 23.132630 -76.210172 0.013348 0.983454 -51.003618 -0.000000 -0.000001 -0.000001 -17.098979 22.128956 -43.123168 0.019735 0.027036 -78.662879 0.000002 0.000001 -0.000002 0.000000 -0.000002 0.000001 13.917692 27.239899 -23.496414 -43.128557 -5.411290 84.812235 0.000029 58.104597 5.767248 -18.206875 16.096510 8.636258 9.347163 2.810537 -11.364519 16.169085 -43.266004 15.843580 0.000001 -0.000000 0.000003 17.076793 -0.396552 31.924338 -0.204437 -0.284188 112.811557 0.000000 -0.000001 0.000002 9.205484 -5.035904 102.738100 0.014958 -0.019202 61.018492 0.000000 -0.000000 0.000001 5.569125 -8.935184 107.329087 0.547979 -0.005790 41.263700 0.000001 0.000003 -0.000002 6.511248 -17.148266 98.228010 0.007412 -0.015759 43.845730 -0.000002 0.000002 0.000001 -0.000000 -0.000002 0.000001 -0.000002 -0.000000 -0.000000 0.000002 0.000000 -0.000000 -0.000002 -0.000000 -0.000000 -0.000002 -0.000000 -0.000000 -0.000002 -0.000000 -0.000000 0.000002 0.000000 -0.000000 -0.000002 -0.000000 -0.000000 -0.000002 -0.000000 -0.000000 -0.000002 -0.000000 -0.000000 0.000002 0.000000 -0.000000 0.000000 -0.000001 0.000000 0.000000 -0.000001 0.000000 0.000000 -0.000001 0.000000 
-0.016511 67.620972 0.002758 5.033327 -15.842001 0.122048 -0.000000 0.000002 -0.000000 -32.122062 3.447156 9.005888 31.652654 4.998973 1.554023 -3.869004 0.577575 -6.052177 -0.000000 -0.000000 -0.000000 0.000001 0.000001 0.000000 -15.185694 -10.992974 -11.572980 32.933355 -6.105654 1.520871 -20.333859 -2.410615 10.548279 -0.000000 -0.000002 0.000000 0.000000 0.000000 0.000000 23.084988 4.376909 -0.223036 3.697004 1.270046 -0.848467 3.690617 1.342608 -0.860965 -12.863703 1.675244 2.090665 -13.987705 8.414727 -3.310303 0.000001 -0.000000 -0.000000 0.000001 -0.000000 -0.000000 0.000001 -0.000000 -0.000000 0.000001 -0.000000 -0.000000 0.000001 0.000000 -0.000000 0.000001 -0.000000 -0.000000 0.000001 0.000000 -0.000000 0.000001 -0.000000 -0.000000 0.000001 -0.000000 -0.000000 7.686570 -20.788210 9.327148 -33.679649 -3.519095 -85.304705 0.000013 -43.357269 -4.333584 -17.231579 -10.328827 -12.796311 -7.471919 1.860683 -7.166917 30.987001 27.310525 -4.510900 -0.000000 -0.000001 -0.000002 -4.711725 11.345210 -75.237478 -0.816404 3.073986 -46.874625 0.000001 -0.000002 -0.000002 1.623083 16.576333 -84.598648 0.017978 0.022026 -72.792625 -0.000001 -0.000002 -0.000001 -6.615177 23.030124 -76.196381 0.013388 0.979938 -50.778645 0.000001 -0.000000 -0.000001 -17.265733 21.699666 -43.572099 0.019301 0.026945 -77.688778 0.000002 -0.000001 -0.000004 0.000004 0.000001 0.000000 13.325454 26.974538 -22.684441 -43.270683 -4.158122 84.402697 -0.000025 57.768053 5.603191 -18.560260 15.926162 8.602506 9.347162 2.810537 -11.364514 16.169088 -43.266007 15.843585 0.000003 -0.000001 0.000002 17.076793 -0.396549 31.924338 -0.204441 -0.284189 112.811550 -0.000000 0.000001 0.000001 9.205486 -5.035904 102.738094 0.014961 -0.019203 61.018492 0.000001 0.000001 -0.000001 5.569123 -8.935185 107.329087 0.547983 -0.005792 41.263703 -0.000000 0.000001 -0.000001 6.511248 -17.148266 98.228010 0.007412 -0.015761 43.845737 -0.000001 0.000002 0.000001 0.000000 0.000001 0.000003 0.000002 0.000001 -0.000001 0.000001 0.000001 -0.000000 0.000002 0.000001 -0.000001 0.000002 0.000001 -0.000001 0.000002 0.000001 -0.000001 0.000001 0.000001 -0.000001 0.000002 0.000001 -0.000001 0.000002 0.000001 -0.000001 0.000002 0.000001 -0.000001 0.000001 0.000001 -0.000001 -0.000000 0.000002 -0.000000 -0.000000 0.000002 -0.000000 -0.000000 0.000002 -0.000000 
0.013408 67.608665 -0.023978 5.037890 -16.168531 0.159429 0.000000 0.000001 -0.000000 -32.139476 3.491661 9.047367 31.752972 5.258455 1.562297 -3.920035 0.587405 -6.107204 0.000000 -0.000000 -0.000000 0.000000 0.000000 -0.000000 -15.370856 -10.917117 -11.659894 33.044964 -5.807722 1.531640 -20.321484 -2.388831 10.471091 -0.000000 0.000003 0.000000 -0.000000 -0.000001 -0.000000 23.091505 4.431270 -0.221062 3.678779 1.304125 -0.850523 3.672131 1.375556 -0.864478 -13.000392 2.224549 1.887411 -13.930414 9.001491 -3.326598 0.000001 -0.000000 -0.000000 0.000001 -0.000000 -0.000000 0.000001 -0.000000 -0.000000 0.000001 -0.000000 -0.000000 0.000000 -0.000000 0.000000 0.000001 -0.000000 -0.000000 0.000000 -0.000000 0.000000 0.000001 -0.000000 -0.000000 0.000001 -0.000000 -0.000000 7.549166 -20.634826 8.867783 -33.753996 -3.967035 -84.994034 0.000002 -43.669644 -3.983668 -17.295449 -9.823984 -12.930752 -7.471921 1.860686 -7.166907 30.987008 27.310517 -4.510896 -0.000000 -0.000002 -0.000002 -4.710314 11.347944 -75.254355 -0.816400 3.073987 -46.874625 0.000003 -0.000004 0.000001 1.629767 16.569776 -84.504869 0.017945 0.022006 -72.696627 0.000001 -0.000003 0.000000 -6.793088 22.924019 -76.193397 0.013306 0.979880 -50.545227 0.000000 -0.000001 0.000001 -17.423650 21.254447 -44.081180 0.018840 0.026837 -76.662685 0.000000 -0.000001 -0.000003 0.000002 -0.000005 -0.000000 12.767492 26.735606 -21.908223 -43.497769 -2.834405 83.950989 0.000007 57.335722 5.420087 -18.961478 15.774149 8.544106 9.347158 2.810539 -11.364520 16.169091 -43.266011 15.843583 0.000000 0.000000 -0.000000 17.076793 -0.396550 31.924338 -0.204437 -0.284189 112.811557 -0.000001 0.000002 0.000001 9.205485 -5.035904 102.738094 0.014963 -0.019204 61.018499 0.000000 0.000000 -0.000001 5.569125 -8.935182 107.329087 0.547983 -0.005797 41.263703 0.000002 -0.000000 -0.000004 6.511246 -17.148266 98.228004 0.007408 -0.015755 43.845740 -0.000002 0.000002 -0.000001 0.000001 -0.000001 -0.000001 -0.000000 0.000000 0.000000 -0.000000 -0.000000 -0.000000 -0.000000 0.000000 -0.000000 -0.000000 0.000000 -0.000000 -0.000000 0.000000 0.000000 -0.000000 -0.000000 -0.000000 -0.000000 0.000000 -0.000000 -0.000000 0.000000 -0.000000 -0.000000 0.000000 0.000000 -0.000000 -0.000000 -0.000000 0.000000 0.000001 -0.000000 0.000000 0.000001 -0.000000 0.000000 0.000001 -0.000000 
0.045636 67.593475 -0.057102 5.042992 -16.538133 0.205571 0.000001 -0.000002 0.000000 -32.150356 3.474117 9.099293 31.871582 5.610039 1.523842 -3.975373 0.595578 -6.167073 -0.000000 0.000000 0.000000 0.000001 0.000001 0.000001 -15.617260 -10.958643 -11.768694 33.178525 -5.357471 1.480444 -20.312769 -2.361919 10.375299 -0.000000 0.000001 0.000000 -0.000000 -0.000001 -0.000000 23.095757 4.484242 -0.222192 3.668305 1.344953 -0.853238 3.661471 1.415975 -0.869073 -13.136368 2.786675 1.677592 -13.885455 9.606062 -3.354276 0.000001 -0.000000 -0.000000 0.000001 -0.000000 -0.000000 0.000001 -0.000000 -0.000000 0.000001 -0.000000 -0.000000 -0.000000 0.000000 -0.000000 0.000001 -0.000000 -0.000000 -0.000000 0.000000 -0.000000 0.000001 -0.000000 -0.000000 0.000001 -0.000000 -0.000000 7.406735 -20.484207 8.380337 -33.834445 -4.568838 -84.564128 0.000015 -43.951735 -3.707975 -17.514617 -9.378003 -12.968276 -7.471922 1.860683 -7.166910 30.987008 27.310522 -4.510904 0.000002 0.000002 -0.000000 -4.708818 11.350801 -75.272175 -0.816400 3.073991 -46.874625 0.000001 -0.000001 0.000003 1.633154 16.563870 -84.406351 0.017900 0.022003 -72.597152 -0.000002 0.000003 -0.000001 -6.976373 22.814604 -76.199571 0.013215 0.979812 -50.303367 -0.000003 -0.000002 -0.000003 -17.571321 20.794171 -44.643373 0.018376 0.026723 -75.590059 0.000001 -0.000002 -0.000001 -0.000003 0.000002 0.000001 12.246194 26.525456 -21.177148 -43.721366 -1.487023 83.438622 0.000017 56.901715 5.282940 -19.419534 15.653918 8.438882 9.347159 2.810537 -11.364517 16.169091 -43.266007 15.843583 0.000003 -0.000003 0.000002 17.076791 -0.396551 31.924338 -0.204438 -0.284189 112.811564 -0.000001 0.000002 0.000002 9.205484 -5.035905 102.738094 0.014963 -0.019203 61.018492 -0.000000 -0.000002 -0.000001 5.569123 -8.935185 107.329080 0.547985 -0.005792 41.263703 0.000001 -0.000001 -0.000000 6.511245 -17.148266 98.228004 0.007411 -0.015759 43.845733 -0.000002 0.000002 -0.000001 -0.000001 0.000003 -0.000002 0.000002 0.000000 0.000000 0.000002 -0.000000 -0.000000 0.000002 0.000000 0.000000 0.000002 0.000000 0.000000 0.000002 0.000000 0.000000 0.000002 -0.000000 -0.000000 0.000002 0.000000 0.000000 0.000002 0.000000 0.000000 0.000002 0.000000 0.000000 0.000002 -0.000000 -0.000000 0.000001 -0.000002 0.000000 0.000001 -0.000002 0.000000 0.000001 -0.000002 0.000000 
